<svg xmlns="http://www.w3.org/2000/svg" width="250" height="90" viewBox="0 0 250 90">
<svg x="10" y="14" width="62" height="62" viewBox="-3 -3 70 70">
<path d="M4 6 Q 10 50 32 50 Q 54 50 60 6" fill="none" stroke="#7ea9d8" stroke-width="4.5" stroke-linecap="round"></path><path d="M6 45 C 17 45 20 41 24 32 C 27 25 28 15 32 15 C 36 15 37 25 40 32 C 44 41 47 45 58 45" fill="none" stroke="#f5c451" stroke-width="3.5" stroke-linecap="round"></path><path d="M43.13 52.88 A11.5 11.5 0 0 1 40.06 58.2" fill="none" stroke="#7ea9d8" stroke-width="2.2" stroke-linecap="round" stroke-dasharray="3 3"></path><path d="M47.97 54.13 A16.5 16.5 0 0 1 43.56 61.77" fill="none" stroke="#7ea9d8" stroke-width="2.2" stroke-linecap="round" stroke-dasharray="3 3"></path><path d="M35.07 61.08 A11.5 11.5 0 0 1 28.93 61.08" fill="none" stroke="#7ea9d8" stroke-width="2.2" stroke-linecap="round" stroke-dasharray="3 3"></path><path d="M36.41 65.9 A16.5 16.5 0 0 1 27.59 65.9" fill="none" stroke="#7ea9d8" stroke-width="2.2" stroke-linecap="round" stroke-dasharray="3 3"></path><path d="M23.94 58.2 A11.5 11.5 0 0 1 20.87 52.88" fill="none" stroke="#7ea9d8" stroke-width="2.2" stroke-linecap="round" stroke-dasharray="3 3"></path><path d="M20.44 61.77 A16.5 16.5 0 0 1 16.03 54.13" fill="none" stroke="#7ea9d8" stroke-width="2.2" stroke-linecap="round" stroke-dasharray="3 3"></path><circle cx="32" cy="50" r="7" fill="#f5c451"></circle>
</svg>
<path d="M96.23 60L91.50 60L91.50 27.80L96.23 27.80L96.23 60ZM108.01 60L103.27 60L103.27 37.32L108.01 37.32L108.01 60ZM105.66 34.24L105.66 34.24Q104.28 34.24 103.34 33.34Q102.40 32.45 102.40 31.02L102.40 31.02Q102.40 29.59 103.34 28.70Q104.28 27.80 105.66 27.80L105.66 27.80Q107.09 27.80 108.01 28.70Q108.93 29.59 108.93 31.02L108.93 31.02Q108.93 32.45 108.01 33.34Q107.09 34.24 105.66 34.24ZM128.16 60.64L128.16 60.64Q124.85 60.64 123.07 59.45Q121.30 58.25 120.43 56.78L120.43 56.78L119.69 56.78L119.69 60L115.05 60L115.05 27.80L119.79 27.80L119.79 40.40L120.52 40.40Q121.07 39.48 121.99 38.63Q122.91 37.78 124.43 37.23Q125.95 36.68 128.16 36.68L128.16 36.68Q131.01 36.68 133.40 38.06Q135.79 39.44 137.22 42.06Q138.65 44.68 138.65 48.32L138.65 48.32L138.65 49.01Q138.65 52.69 137.20 55.28Q135.75 57.88 133.38 59.26Q131.01 60.64 128.16 60.64ZM126.78 56.50L126.78 56.50Q129.86 56.50 131.86 54.53Q133.86 52.55 133.86 48.87L133.86 48.87L133.86 48.45Q133.86 44.82 131.88 42.84Q129.91 40.86 126.78 40.86L126.78 40.86Q123.74 40.86 121.74 42.84Q119.74 44.82 119.74 48.45L119.74 48.45L119.74 48.87Q119.74 52.55 121.74 54.53Q123.74 56.50 126.78 56.50ZM149.23 60L144.40 60L144.40 27.80L153.73 27.80L160.77 56.69L161.51 56.69L168.55 27.80L177.88 27.80L177.88 60L173.05 60L173.05 31.30L172.32 31.30L165.33 60L156.95 60L149.96 31.30L149.23 31.30L149.23 60ZM199.83 60L183.40 60L183.40 55.58L187.73 55.58L187.73 32.22L183.40 32.22L183.40 27.80L199.73 27.80Q202.63 27.80 204.79 28.79Q206.96 29.78 208.17 31.59Q209.39 33.41 209.39 35.90L209.39 35.90L209.39 36.36Q209.39 38.56 208.57 39.99Q207.74 41.42 206.56 42.20Q205.39 42.98 204.33 43.30L204.33 43.30L204.33 44.04Q205.39 44.31 206.61 45.12Q207.83 45.92 208.68 47.35Q209.53 48.78 209.53 51.08L209.53 51.08L209.53 51.54Q209.53 54.20 208.29 56.09Q207.05 57.98 204.86 58.99Q202.68 60 199.83 60L199.83 60ZM192.74 46.06L192.74 55.49L199.23 55.49Q201.71 55.49 203.14 54.30Q204.56 53.10 204.56 50.98L204.56 50.98L204.56 50.57Q204.56 48.45 203.16 47.26Q201.76 46.06 199.23 46.06L199.23 46.06L192.74 46.06ZM192.74 32.31L192.74 41.51L199.23 41.51Q201.57 41.51 203 40.34Q204.43 39.16 204.43 37.14L204.43 37.14L204.43 36.68Q204.43 34.65 203.02 33.48Q201.62 32.31 199.23 32.31L199.23 32.31L192.74 32.31ZM226.78 60L213.90 60L213.90 55.58L218.23 55.58L218.23 32.22L213.90 32.22L213.90 27.80L226.78 27.80Q233.22 27.80 236.65 31.07Q240.08 34.33 240.08 40.91L240.08 40.91L240.08 46.94Q240.08 53.51 236.65 56.76Q233.22 60 226.78 60L226.78 60ZM223.24 32.35L223.24 55.49L226.83 55.49Q231.01 55.49 233.04 53.38Q235.06 51.26 235.06 47.07L235.06 47.07L235.06 40.73Q235.06 36.49 233.04 34.42Q231.01 32.35 226.83 32.35L226.83 32.35L223.24 32.35Z" fill="#f2f0ea"></path>
</svg>