<svg xmlns="http://www.w3.org/2000/svg" width="64" height="64" viewBox="-3 -3 70 70">
<path d="M4 6 Q 10 50 32 50 Q 54 50 60 6" fill="none" stroke="#345d8a" stroke-width="4.5" stroke-linecap="round"></path><path d="M6 45 C 17 45 20 41 24 32 C 27 25 28 15 32 15 C 36 15 37 25 40 32 C 44 41 47 45 58 45" fill="none" stroke="#f0b429" stroke-width="3.5" stroke-linecap="round"></path><path d="M43.13 52.88 A11.5 11.5 0 0 1 40.06 58.2" fill="none" stroke="#345d8a" stroke-width="2.2" stroke-linecap="round" stroke-dasharray="3 3"></path><path d="M47.97 54.13 A16.5 16.5 0 0 1 43.56 61.77" fill="none" stroke="#345d8a" stroke-width="2.2" stroke-linecap="round" stroke-dasharray="3 3"></path><path d="M35.07 61.08 A11.5 11.5 0 0 1 28.93 61.08" fill="none" stroke="#345d8a" stroke-width="2.2" stroke-linecap="round" stroke-dasharray="3 3"></path><path d="M36.41 65.9 A16.5 16.5 0 0 1 27.59 65.9" fill="none" stroke="#345d8a" stroke-width="2.2" stroke-linecap="round" stroke-dasharray="3 3"></path><path d="M23.94 58.2 A11.5 11.5 0 0 1 20.87 52.88" fill="none" stroke="#345d8a" stroke-width="2.2" stroke-linecap="round" stroke-dasharray="3 3"></path><path d="M20.44 61.77 A16.5 16.5 0 0 1 16.03 54.13" fill="none" stroke="#345d8a" stroke-width="2.2" stroke-linecap="round" stroke-dasharray="3 3"></path><circle cx="32" cy="50" r="7" fill="#f0b429"></circle>
</svg>